# xmcd CD database file
#
# Track frame offsets:
#	150
#	12729
#	27540
#	42333
#	52838
#	67756
#	78302
#	94293
#	107133
#	117763
#
# Disc length: 1787 seconds
#
# Revision: 7
# Processed by: cddbd v1.5.2PL0 Copyright (c) Steve Scherf et al.
# Submitted via: CDex 1.51
#
DISCID=7c06f90a
DTITLE=Jerry Reed - Super Hits
DYEAR=1997
DGENRE=Country
TTITLE0=East Bound And Down
TTITLE1=The Bird
TTITLE2=She Got The Goldmine (I Got The Shaft)
TTITLE3=Amos Moses
TTITLE4=Lord, Mr. Ford
TTITLE5=When You're Hot, You're Hot
TTITLE6=Down On The Corner
TTITLE7=Remembering
TTITLE8=Sugar Foot Rag
TTITLE9=I Love You, What Can I Say
EXTD=YEAR: 1997
EXTT0=
EXTT1=
EXTT2=
EXTT3=
EXTT4=
EXTT5=
EXTT6=
EXTT7=
EXTT8=
EXTT9=
PLAYORDER=
